<svg width="29" height="36" viewBox="0 0 29 36" fill="none" xmlns="http://www.w3.org/2000/svg">
<path d="M25.8587 33.9999H3.132C2.97495 33.9997 2.81966 33.9637 2.67598 33.8944C2.5323 33.825 2.40336 33.7238 2.29734 33.5971C2.19132 33.4704 2.11052 33.321 2.06008 33.1583C2.00963 32.9957 1.99064 32.8234 2.0043 32.6523L4.02554 10.416C4.0544 10.1104 4.18547 9.82718 4.3936 9.62074C4.60173 9.4143 4.87225 9.29919 5.15325 9.29749H23.8375C24.1148 9.29657 24.3829 9.40622 24.5917 9.60592C24.8004 9.80561 24.9354 10.0817 24.9713 10.3823L26.9926 32.6186C27.0109 32.7929 26.9952 32.9695 26.9465 33.1366C26.8977 33.3038 26.8171 33.4577 26.71 33.5883C26.6028 33.7189 26.4715 33.8231 26.3247 33.894C26.178 33.965 26.0192 34.0011 25.8587 33.9999Z" stroke="black" stroke-width="3"/>
<path d="M8.49963 12.7812V8.55632C8.49963 6.81748 9.13135 5.14985 10.2558 3.9203C11.3803 2.69075 12.9054 2 14.4956 2C16.0858 2 17.6109 2.69075 18.7354 3.9203C19.8598 5.14985 20.4915 6.81748 20.4915 8.55632V12.8014" stroke="black" stroke-width="3"/>
<path d="M8.49968 14.1288C9.18035 14.1288 9.73215 13.5255 9.73215 12.7812C9.73215 12.0369 9.18035 11.4335 8.49968 11.4335C7.81901 11.4335 7.26721 12.0369 7.26721 12.7812C7.26721 13.5255 7.81901 14.1288 8.49968 14.1288Z" stroke="black" stroke-width="2"/>
<path d="M20.4917 14.1288C21.1724 14.1288 21.7242 13.5255 21.7242 12.7812C21.7242 12.0369 21.1724 11.4335 20.4917 11.4335C19.8111 11.4335 19.2593 12.0369 19.2593 12.7812C19.2593 13.5255 19.8111 14.1288 20.4917 14.1288Z" stroke="black" stroke-width="2"/>
</svg>
