<svg width="71" height="21" viewBox="0 0 71 21" fill="none" xmlns="http://www.w3.org/2000/svg">
<path d="M20.7767 10.3883C20.7767 16.1257 16.1257 20.7767 10.3883 20.7767C4.65102 20.7767 0 16.1257 0 10.3883C0 4.65102 4.65102 0 10.3883 0C16.1257 0 20.7767 4.65102 20.7767 10.3883Z" fill="#B54242"/>
<path d="M70.6414 10.3883C70.6414 16.1257 65.9903 20.7767 60.253 20.7767C54.5157 20.7767 49.8647 16.1257 49.8647 10.3883C49.8647 4.65102 54.5157 0 60.253 0C65.9903 0 70.6414 4.65102 70.6414 10.3883Z" fill="#CE8147"/>
<path d="M45.708 10.3883C45.708 16.1257 41.0569 20.7767 35.3196 20.7767C29.5823 20.7767 24.9313 16.1257 24.9313 10.3883C24.9313 4.65102 29.5823 0 35.3196 0C41.0569 0 45.708 4.65102 45.708 10.3883Z" fill="#0A3641"/>
<path d="M20.7767 10.3883C20.7767 16.1257 16.1257 20.7767 10.3883 20.7767C4.65102 20.7767 0 16.1257 0 10.3883C0 4.65102 4.65102 0 10.3883 0C16.1257 0 20.7767 4.65102 20.7767 10.3883Z" fill="#B54242"/>
<path d="M70.6414 10.3883C70.6414 16.1257 65.9903 20.7767 60.253 20.7767C54.5157 20.7767 49.8647 16.1257 49.8647 10.3883C49.8647 4.65102 54.5157 0 60.253 0C65.9903 0 70.6414 4.65102 70.6414 10.3883Z" fill="#CE8147"/>
<path d="M45.708 10.3883C45.708 16.1257 41.0569 20.7767 35.3196 20.7767C29.5823 20.7767 24.9313 16.1257 24.9313 10.3883C24.9313 4.65102 29.5823 0 35.3196 0C41.0569 0 45.708 4.65102 45.708 10.3883Z" fill="#0A3641"/>
</svg>
