<svg width="42" height="42" viewBox="0 0 42 42" fill="none" xmlns="http://www.w3.org/2000/svg">
<path fill-rule="evenodd" clip-rule="evenodd" d="M9.57192 9.57192C10.0845 9.05936 10.9155 9.05936 11.4281 9.57192L32.428 30.572C32.9406 31.0845 32.9406 31.9154 32.428 32.428C31.9154 32.9406 31.0845 32.9406 30.572 32.428L9.57192 11.4281C9.05936 10.9155 9.05936 10.0845 9.57192 9.57192Z" fill="#0A3641"/>
<path fill-rule="evenodd" clip-rule="evenodd" d="M32.428 9.57192C32.9406 10.0845 32.9406 10.9155 32.428 11.4281L11.4281 32.428C10.9155 32.9406 10.0845 32.9406 9.57193 32.428C9.05936 31.9154 9.05936 31.0845 9.57192 30.572L30.572 9.57192C31.0845 9.05936 31.9154 9.05936 32.428 9.57192Z" fill="#0A3641"/>
</svg>
