<svg width="79" height="79" viewBox="0 0 79 79" fill="none" xmlns="http://www.w3.org/2000/svg">
<path d="M51.4638 77.6207H37.4839H18.9901C14.5577 77.6207 9.73558 75.7395 6.40313 72.407C3.06487 69.0688 1.18945 64.5411 1.18945 59.8201V18.8006C1.18945 14.0796 3.06487 9.55193 6.40313 6.21367C9.74139 2.87541 14.269 1 18.9901 1H60.0095C64.7306 1 69.2582 2.87541 72.5965 6.21367C75.9347 9.55193 77.8101 14.0796 77.8101 18.8006V59.8201C77.8101 64.5411 75.9347 69.0688 72.5965 72.407C69.2582 75.7453 64.7306 77.6207 60.0095 77.6207H51.4638Z" stroke="black" stroke-width="2"/>
<path fill-rule="evenodd" clip-rule="evenodd" d="M55.8375 38.2017L54.73 46.2855H41.4282V74.5789H33.3444V46.2855H21.2186V38.2017H33.3444V30.7929C33.3444 20.5144 39.6578 13.8695 49.4351 13.8695C53.6226 13.8695 56.2336 14.0918 57.7413 14.2939L57.624 21.9493L51.4076 21.9614C51.2378 21.9453 47.1879 21.63 44.2655 24.3138C42.382 26.0397 41.4282 28.5214 41.4282 31.6822V38.2018L55.8375 38.2017ZM46.9777 27.3089C48.5702 25.8255 51.0519 25.9871 51.2338 25.9952L61.6053 25.9912L61.8276 11.0321L60.2674 10.6481C59.2651 10.4016 56.1972 9.82764 49.4351 9.82764C37.3943 9.82764 29.3024 18.255 29.3024 30.7929V34.1599H17.1768V50.3275H29.3024V78.6207H45.47V50.3274H58.2505L60.4695 34.1599H45.4701V31.6822C45.4701 29.7138 45.9793 28.2425 46.9777 27.3089Z" fill="black"/>
</svg>
