<svg width="43" height="40" viewBox="0 0 43 40" fill="none" xmlns="http://www.w3.org/2000/svg">
<mask id="path-1-inside-1_329_373" fill="white">
<path d="M31.6582 0H11.579C8.69444 0 5.92803 1.09571 3.88833 3.04609C1.84864 4.99647 0.702759 7.64175 0.702759 10.4V29.6C0.702759 32.3583 1.84864 35.0035 3.88833 36.9539C5.92803 38.9043 8.69444 40 11.579 40H31.6582C34.5428 40 37.3092 38.9043 39.3489 36.9539C41.3886 35.0035 42.5344 32.3583 42.5344 29.6V10.4C42.5344 7.64175 41.3886 4.99647 39.3489 3.04609C37.3092 1.09571 34.5428 0 31.6582 0ZM22.4552 38.4V24.8C22.4552 24.5878 22.3671 24.3843 22.2102 24.2343C22.0533 24.0843 21.8405 24 21.6186 24H17.4354V19.2H21.6186C21.8405 19.2 22.0533 19.1157 22.2102 18.9657C22.3671 18.8157 22.4552 18.6122 22.4552 18.4V12C22.4552 10.9391 22.896 9.92172 23.6805 9.17157C24.465 8.42143 25.529 8 26.6384 8H33.3315V12.8H29.9849C29.3193 12.8 28.6809 13.0529 28.2102 13.5029C27.7395 13.953 27.475 14.5635 27.475 15.2V18.4C27.475 18.6122 27.5632 18.8157 27.7201 18.9657C27.877 19.1157 28.0898 19.2 28.3117 19.2H33.3315V24H28.3117C28.0898 24 27.877 24.0843 27.7201 24.2343C27.5632 24.3843 27.475 24.5878 27.475 24.8V38.4H22.4552ZM40.8612 29.6C40.8612 31.9339 39.8916 34.1722 38.1657 35.8225C36.4398 37.4729 34.099 38.4 31.6582 38.4H29.1483V25.6H34.1681C34.39 25.6 34.6028 25.5157 34.7597 25.3657C34.9166 25.2157 35.0047 25.0122 35.0047 24.8V18.4C35.0047 18.1878 34.9166 17.9843 34.7597 17.8343C34.6028 17.6843 34.39 17.6 34.1681 17.6H29.1483V15.2C29.1483 14.9878 29.2364 14.7843 29.3933 14.6343C29.5502 14.4843 29.7631 14.4 29.9849 14.4H34.1681C34.39 14.4 34.6028 14.3157 34.7597 14.1657C34.9166 14.0157 35.0047 13.8122 35.0047 13.6V7.2C35.0047 6.98783 34.9166 6.78434 34.7597 6.63431C34.6028 6.48429 34.39 6.4 34.1681 6.4H26.6384C25.0852 6.4 23.5956 6.99 22.4973 8.0402C21.399 9.09041 20.782 10.5148 20.782 12V17.6H16.5988C16.3769 17.6 16.1641 17.6843 16.0072 17.8343C15.8503 17.9843 15.7622 18.1878 15.7622 18.4V24.8C15.7622 25.0122 15.8503 25.2157 16.0072 25.3657C16.1641 25.5157 16.3769 25.6 16.5988 25.6H20.782V38.4H11.579C9.13822 38.4 6.79741 37.4729 5.07151 35.8225C3.34562 34.1722 2.37603 31.9339 2.37603 29.6V10.4C2.37603 8.06609 3.34562 5.82778 5.07151 4.17746C6.79741 2.52714 9.13822 1.6 11.579 1.6H31.6582C34.099 1.6 36.4398 2.52714 38.1657 4.17746C39.8916 5.82778 40.8612 8.06609 40.8612 10.4V29.6Z"/>
</mask>
<path d="M31.6582 0H11.579C8.69444 0 5.92803 1.09571 3.88833 3.04609C1.84864 4.99647 0.702759 7.64175 0.702759 10.4V29.6C0.702759 32.3583 1.84864 35.0035 3.88833 36.9539C5.92803 38.9043 8.69444 40 11.579 40H31.6582C34.5428 40 37.3092 38.9043 39.3489 36.9539C41.3886 35.0035 42.5344 32.3583 42.5344 29.6V10.4C42.5344 7.64175 41.3886 4.99647 39.3489 3.04609C37.3092 1.09571 34.5428 0 31.6582 0ZM22.4552 38.4V24.8C22.4552 24.5878 22.3671 24.3843 22.2102 24.2343C22.0533 24.0843 21.8405 24 21.6186 24H17.4354V19.2H21.6186C21.8405 19.2 22.0533 19.1157 22.2102 18.9657C22.3671 18.8157 22.4552 18.6122 22.4552 18.4V12C22.4552 10.9391 22.896 9.92172 23.6805 9.17157C24.465 8.42143 25.529 8 26.6384 8H33.3315V12.8H29.9849C29.3193 12.8 28.6809 13.0529 28.2102 13.5029C27.7395 13.953 27.475 14.5635 27.475 15.2V18.4C27.475 18.6122 27.5632 18.8157 27.7201 18.9657C27.877 19.1157 28.0898 19.2 28.3117 19.2H33.3315V24H28.3117C28.0898 24 27.877 24.0843 27.7201 24.2343C27.5632 24.3843 27.475 24.5878 27.475 24.8V38.4H22.4552ZM40.8612 29.6C40.8612 31.9339 39.8916 34.1722 38.1657 35.8225C36.4398 37.4729 34.099 38.4 31.6582 38.4H29.1483V25.6H34.1681C34.39 25.6 34.6028 25.5157 34.7597 25.3657C34.9166 25.2157 35.0047 25.0122 35.0047 24.8V18.4C35.0047 18.1878 34.9166 17.9843 34.7597 17.8343C34.6028 17.6843 34.39 17.6 34.1681 17.6H29.1483V15.2C29.1483 14.9878 29.2364 14.7843 29.3933 14.6343C29.5502 14.4843 29.7631 14.4 29.9849 14.4H34.1681C34.39 14.4 34.6028 14.3157 34.7597 14.1657C34.9166 14.0157 35.0047 13.8122 35.0047 13.6V7.2C35.0047 6.98783 34.9166 6.78434 34.7597 6.63431C34.6028 6.48429 34.39 6.4 34.1681 6.4H26.6384C25.0852 6.4 23.5956 6.99 22.4973 8.0402C21.399 9.09041 20.782 10.5148 20.782 12V17.6H16.5988C16.3769 17.6 16.1641 17.6843 16.0072 17.8343C15.8503 17.9843 15.7622 18.1878 15.7622 18.4V24.8C15.7622 25.0122 15.8503 25.2157 16.0072 25.3657C16.1641 25.5157 16.3769 25.6 16.5988 25.6H20.782V38.4H11.579C9.13822 38.4 6.79741 37.4729 5.07151 35.8225C3.34562 34.1722 2.37603 31.9339 2.37603 29.6V10.4C2.37603 8.06609 3.34562 5.82778 5.07151 4.17746C6.79741 2.52714 9.13822 1.6 11.579 1.6H31.6582C34.099 1.6 36.4398 2.52714 38.1657 4.17746C39.8916 5.82778 40.8612 8.06609 40.8612 10.4V29.6Z" fill="black"/>
<path d="M11.579 0V-2.5V0ZM0.702759 10.4H-1.79724H0.702759ZM0.702759 29.6H-1.79724H0.702759ZM11.579 40V37.5V40ZM42.5344 29.6H40.0344H42.5344ZM22.4552 38.4H19.9552V40.9H22.4552V38.4ZM17.4354 24H14.9354V26.5H17.4354V24ZM17.4354 19.2V16.7H14.9354V19.2H17.4354ZM33.3315 8H35.8315V5.5H33.3315V8ZM33.3315 12.8V15.3H35.8315V12.8H33.3315ZM29.9849 12.8V10.3V12.8ZM33.3315 19.2H35.8315V16.7H33.3315V19.2ZM33.3315 24V26.5H35.8315V24H33.3315ZM27.475 38.4V40.9H29.975V38.4H27.475ZM29.1483 38.4H26.6483V40.9H29.1483V38.4ZM29.1483 25.6V23.1H26.6483V25.6H29.1483ZM29.1483 17.6H26.6483V20.1H29.1483V17.6ZM26.6384 6.4V3.9V6.4ZM20.782 17.6V20.1H23.282V17.6H20.782ZM20.782 25.6H23.282V23.1H20.782V25.6ZM20.782 38.4V40.9H23.282V38.4H20.782ZM2.37603 29.6H-0.123974H2.37603ZM31.6582 -2.5H11.579V2.5H31.6582V-2.5ZM11.579 -2.5C8.06662 -2.5 4.67681 -1.16686 2.16057 1.23921L5.6161 4.85297C7.17924 3.35828 9.32226 2.5 11.579 2.5V-2.5ZM2.16057 1.23921C-0.359477 3.64891 -1.79724 6.94167 -1.79724 10.4H3.20276C3.20276 8.34183 4.05677 6.34403 5.6161 4.85297L2.16057 1.23921ZM-1.79724 10.4V29.6H3.20276V10.4H-1.79724ZM-1.79724 29.6C-1.79724 33.0583 -0.359477 36.3511 2.16057 38.7608L5.6161 35.147C4.05677 33.656 3.20276 31.6582 3.20276 29.6H-1.79724ZM2.16057 38.7608C4.67681 41.1669 8.06662 42.5 11.579 42.5V37.5C9.32226 37.5 7.17924 36.6417 5.6161 35.147L2.16057 38.7608ZM11.579 42.5H31.6582V37.5H11.579V42.5ZM31.6582 42.5C35.1706 42.5 38.5604 41.1669 41.0766 38.7608L37.6211 35.147C36.058 36.6417 33.9149 37.5 31.6582 37.5V42.5ZM41.0766 38.7608C43.5967 36.3511 45.0344 33.0583 45.0344 29.6H40.0344C40.0344 31.6582 39.1804 33.656 37.6211 35.147L41.0766 38.7608ZM45.0344 29.6V10.4H40.0344V29.6H45.0344ZM45.0344 10.4C45.0344 6.94167 43.5967 3.64891 41.0766 1.23921L37.6211 4.85297C39.1804 6.34403 40.0344 8.34183 40.0344 10.4H45.0344ZM41.0766 1.23921C38.5604 -1.16686 35.1706 -2.5 31.6582 -2.5V2.5C33.9149 2.5 36.058 3.35828 37.6211 4.85297L41.0766 1.23921ZM24.9552 38.4V24.8H19.9552V38.4H24.9552ZM24.9552 24.8C24.9552 23.8878 24.5752 23.0368 23.938 22.4274L20.4824 26.0412C20.159 25.7319 19.9552 25.2879 19.9552 24.8H24.9552ZM23.938 22.4274C23.3045 21.8217 22.4683 21.5 21.6186 21.5V26.5C21.2127 26.5 20.8021 26.3469 20.4824 26.0412L23.938 22.4274ZM21.6186 21.5H17.4354V26.5H21.6186V21.5ZM19.9354 24V19.2H14.9354V24H19.9354ZM17.4354 21.7H21.6186V16.7H17.4354V21.7ZM21.6186 21.7C22.4683 21.7 23.3045 21.3783 23.938 20.7726L20.4824 17.1588C20.8021 16.8532 21.2127 16.7 21.6186 16.7V21.7ZM23.938 20.7726C24.5752 20.1632 24.9552 19.3123 24.9552 18.4H19.9552C19.9552 17.9121 20.159 17.4681 20.4824 17.1588L23.938 20.7726ZM24.9552 18.4V12H19.9552V18.4H24.9552ZM24.9552 12C24.9552 11.6392 25.1041 11.2693 25.4082 10.9785L21.9527 7.36469C20.6878 8.57416 19.9552 10.2391 19.9552 12H24.9552ZM25.4082 10.9785C25.7162 10.684 26.1568 10.5 26.6384 10.5V5.5C24.9011 5.5 23.2137 6.15886 21.9527 7.36469L25.4082 10.9785ZM26.6384 10.5H33.3315V5.5H26.6384V10.5ZM30.8315 8V12.8H35.8315V8H30.8315ZM33.3315 10.3H29.9849V15.3H33.3315V10.3ZM29.9849 10.3C28.6914 10.3 27.4297 10.7903 26.4824 11.6961L29.9379 15.3098C29.9342 15.3134 29.9355 15.3108 29.9451 15.307C29.9546 15.3032 29.9683 15.3 29.9849 15.3V10.3ZM26.4824 11.6961C25.5314 12.6055 24.975 13.8634 24.975 15.2H29.975C29.975 15.2636 29.9476 15.3006 29.9379 15.3098L26.4824 11.6961ZM24.975 15.2V18.4H29.975V15.2H24.975ZM24.975 18.4C24.975 19.3123 25.3551 20.1632 25.9923 20.7726L29.4478 17.1588C29.7713 17.4681 29.975 17.9121 29.975 18.4H24.975ZM25.9923 20.7726C26.6258 21.3783 27.4619 21.7 28.3117 21.7V16.7C28.7176 16.7 29.1282 16.8532 29.4478 17.1588L25.9923 20.7726ZM28.3117 21.7H33.3315V16.7H28.3117V21.7ZM30.8315 19.2V24H35.8315V19.2H30.8315ZM33.3315 21.5H28.3117V26.5H33.3315V21.5ZM28.3117 21.5C27.462 21.5 26.6258 21.8217 25.9923 22.4274L29.4478 26.0412C29.1282 26.3469 28.7176 26.5 28.3117 26.5V21.5ZM25.9923 22.4274C25.3551 23.0368 24.975 23.8878 24.975 24.8H29.975C29.975 25.2879 29.7713 25.7319 29.4478 26.0412L25.9923 22.4274ZM24.975 24.8V38.4H29.975V24.8H24.975ZM27.475 35.9H22.4552V40.9H27.475V35.9ZM38.3612 29.6C38.3612 31.2338 37.6835 32.8247 36.4379 34.0157L39.8935 37.6294C42.0997 35.5198 43.3612 32.634 43.3612 29.6H38.3612ZM36.4379 34.0157C35.1886 35.2103 33.4712 35.9 31.6582 35.9V40.9C34.7268 40.9 37.691 39.7354 39.8935 37.6294L36.4379 34.0157ZM31.6582 35.9H29.1483V40.9H31.6582V35.9ZM31.6483 38.4V25.6H26.6483V38.4H31.6483ZM29.1483 28.1H34.1681V23.1H29.1483V28.1ZM34.1681 28.1C35.0178 28.1 35.854 27.7783 36.4875 27.1726L33.0319 23.5588C33.3516 23.2531 33.7622 23.1 34.1681 23.1V28.1ZM36.4875 27.1726C37.1247 26.5632 37.5047 25.7122 37.5047 24.8H32.5047C32.5047 24.3121 32.7085 23.8681 33.0319 23.5588L36.4875 27.1726ZM37.5047 24.8V18.4H32.5047V24.8H37.5047ZM37.5047 18.4C37.5047 17.4878 37.1247 16.6368 36.4875 16.0274L33.0319 19.6412C32.7085 19.3319 32.5047 18.8879 32.5047 18.4H37.5047ZM36.4875 16.0274C35.854 15.4217 35.0178 15.1 34.1681 15.1V20.1C33.7622 20.1 33.3516 19.9469 33.0319 19.6412L36.4875 16.0274ZM34.1681 15.1H29.1483V20.1H34.1681V15.1ZM31.6483 17.6V15.2H26.6483V17.6H31.6483ZM31.6483 15.2C31.6483 15.6879 31.4446 16.1319 31.1211 16.4412L27.6656 12.8274C27.0283 13.4368 26.6483 14.2878 26.6483 15.2H31.6483ZM31.1211 16.4412C30.8015 16.7469 30.3909 16.9 29.9849 16.9V11.9C29.1352 11.9 28.299 12.2217 27.6656 12.8274L31.1211 16.4412ZM29.9849 16.9H34.1681V11.9H29.9849V16.9ZM34.1681 16.9C35.0178 16.9 35.854 16.5783 36.4875 15.9726L33.0319 12.3588C33.3516 12.0531 33.7622 11.9 34.1681 11.9V16.9ZM36.4875 15.9726C37.1247 15.3632 37.5047 14.5122 37.5047 13.6H32.5047C32.5047 13.1121 32.7085 12.6681 33.0319 12.3588L36.4875 15.9726ZM37.5047 13.6V7.2H32.5047V13.6H37.5047ZM37.5047 7.2C37.5047 6.28777 37.1247 5.4368 36.4875 4.82743L33.0319 8.4412C32.7085 8.13189 32.5047 7.68789 32.5047 7.2H37.5047ZM36.4875 4.82743C35.854 4.22171 35.0178 3.9 34.1681 3.9V8.9C33.7622 8.9 33.3516 8.74686 33.0319 8.4412L36.4875 4.82743ZM34.1681 3.9H26.6384V8.9H34.1681V3.9ZM26.6384 3.9C24.4574 3.9 22.3444 4.72743 20.7695 6.23332L24.225 9.84709C24.8468 9.25257 25.713 8.9 26.6384 8.9V3.9ZM20.7695 6.23332C19.1909 7.74285 18.282 9.81471 18.282 12H23.282C23.282 11.2149 23.6071 10.438 24.225 9.84709L20.7695 6.23332ZM18.282 12V17.6H23.282V12H18.282ZM20.782 15.1H16.5988V20.1H20.782V15.1ZM16.5988 15.1C15.7491 15.1 14.9129 15.4217 14.2794 16.0274L17.735 19.6412C17.4153 19.9469 17.0047 20.1 16.5988 20.1V15.1ZM14.2794 16.0274C13.6422 16.6368 13.2622 17.4877 13.2622 18.4H18.2622C18.2622 18.8879 18.0584 19.3319 17.735 19.6412L14.2794 16.0274ZM13.2622 18.4V24.8H18.2622V18.4H13.2622ZM13.2622 24.8C13.2622 25.7123 13.6422 26.5632 14.2794 27.1726L17.735 23.5588C18.0584 23.8681 18.2622 24.3121 18.2622 24.8H13.2622ZM14.2794 27.1726C14.9129 27.7783 15.7491 28.1 16.5988 28.1V23.1C17.0047 23.1 17.4153 23.2531 17.735 23.5588L14.2794 27.1726ZM16.5988 28.1H20.782V23.1H16.5988V28.1ZM18.282 25.6V38.4H23.282V25.6H18.282ZM20.782 35.9H11.579V40.9H20.782V35.9ZM11.579 35.9C9.76604 35.9 8.04862 35.2103 6.79928 34.0157L3.34375 37.6294C5.54619 39.7354 8.5104 40.9 11.579 40.9V35.9ZM6.79928 34.0157C5.55374 32.8247 4.87603 31.2338 4.87603 29.6H-0.123974C-0.123974 32.634 1.1375 35.5198 3.34375 37.6294L6.79928 34.0157ZM4.87603 29.6V10.4H-0.123974V29.6H4.87603ZM4.87603 10.4C4.87603 8.76617 5.55374 7.17534 6.79928 5.98434L3.34375 2.37058C1.1375 4.48022 -0.123974 7.36602 -0.123974 10.4H4.87603ZM6.79928 5.98434C8.04862 4.78971 9.76604 4.1 11.579 4.1V-0.9C8.5104 -0.9 5.54619 0.264573 3.34375 2.37058L6.79928 5.98434ZM11.579 4.1H31.6582V-0.9H11.579V4.1ZM31.6582 4.1C33.4712 4.1 35.1886 4.78971 36.4379 5.98434L39.8935 2.37058C37.691 0.264573 34.7268 -0.9 31.6582 -0.9V4.1ZM36.4379 5.98434C37.6835 7.17534 38.3612 8.76617 38.3612 10.4H43.3612C43.3612 7.36602 42.0997 4.48022 39.8935 2.37058L36.4379 5.98434ZM38.3612 10.4V29.6H43.3612V10.4H38.3612Z" fill="black" mask="url(#path-1-inside-1_329_373)"/>
</svg>
