<svg width="28" height="28" viewBox="0 0 28 28" fill="none" xmlns="http://www.w3.org/2000/svg">
<g clip-path="url(#clip0_329_437)">
<path fill-rule="evenodd" clip-rule="evenodd" d="M24.682 13.2802L13.9959 23.3042L3.33279 13.3033C1.07797 11.0155 1.07797 7.29316 3.33279 5.0054C4.41986 3.90351 5.86597 3.29575 7.40597 3.29575H7.40762C8.94597 3.29575 10.3921 3.90351 11.4775 5.0054L11.4792 5.00705C12.5695 6.11222 13.1723 7.58633 13.1723 9.15433H14.8194C14.8194 7.58633 15.4206 6.11222 16.5126 5.0054C17.598 3.90351 19.0441 3.29575 20.5841 3.29575H20.5857C22.1241 3.29575 23.5719 3.90351 24.6573 5.0054C26.9121 7.29316 26.9121 11.0155 24.682 13.2802ZM25.8316 3.84916C24.4333 2.4294 22.5688 1.64868 20.5857 1.64868H20.5841C18.5994 1.64868 16.7366 2.4294 15.3399 3.84751C14.7914 4.40257 14.3417 5.02846 13.9959 5.7054C13.65 5.02844 13.1987 4.40257 12.6519 3.84916C11.2552 2.4294 9.39234 1.64868 7.40762 1.64868H7.40597C5.42292 1.64868 3.55845 2.4294 2.15845 3.84916C-0.723914 6.77598 -0.723914 11.5343 2.18316 14.4809L13.9959 25.5623L25.8316 14.4579C28.714 11.5343 28.714 6.77598 25.8316 3.84916Z" fill="#0A3641"/>
</g>
<defs>
<clipPath id="clip0_329_437">
<rect width="28" height="28" fill="white"/>
</clipPath>
</defs>
</svg>
