<svg width="43" height="40" viewBox="0 0 43 40" fill="none" xmlns="http://www.w3.org/2000/svg">
<path d="M1.13236 11.4893C1.23269 9.44528 1.57597 8.12702 2.04021 7.00804L2.04646 6.99258C2.5065 5.8539 3.22718 4.82238 4.15833 3.96978L4.17139 3.95782L4.18422 3.94564C5.09948 3.0764 6.2063 2.40516 7.42658 1.9774L7.44763 1.9699C8.64512 1.53572 10.0563 1.21686 12.2506 1.12334M1.13236 11.4893C1.02688 13.6732 1 14.3502 1 20.0126C1 25.6762 1.0254 26.3516 1.1323 28.536M1.13236 11.4893V12.0402M12.2506 1.12334C14.5936 1.02368 15.3195 1 21.3929 1C27.4664 1 28.1919 1.02504 30.5343 1.12336M12.2506 1.12334H12.843M1.1323 28.536C1.23261 30.5818 1.57462 31.8974 2.04032 33.0138L2.04836 33.0336M1.1323 28.536L1.16823 28.7124M1.1323 28.536V27.9838M1.13236 12.0402C1.14055 11.8651 1.14939 11.6827 1.15885 11.4887C1.26879 9.25228 1.67658 7.9456 2.06527 7.0188C2.56832 5.80844 3.20556 4.89512 4.1791 3.98372C5.10445 3.09872 6.22938 2.41674 7.47234 1.98716C8.46203 1.62928 9.85987 1.25024 12.2496 1.14812C12.4584 1.13928 12.6547 1.13102 12.843 1.12334M1.13236 12.0402C1.04554 13.8909 1.02688 14.9118 1.02688 20.0126C1.02688 25.1116 1.04554 26.134 1.1323 27.9838M1.13236 12.0402L1.1323 27.9838M2.04836 33.0336C2.50718 34.1712 3.22716 35.203 4.15951 36.0564L4.17255 36.0684L4.18536 36.0804C5.09991 36.9486 6.20636 37.6206 7.42772 38.0494L7.44595 38.0558C8.64455 38.4892 10.0564 38.8082 12.2506 38.9018M2.04836 33.0336L2.02086 32.8984M2.02086 32.8984L1.16823 28.7124M2.02086 32.8984C1.65873 32.0066 1.28585 30.762 1.16823 28.7124M2.02086 32.8984C2.03356 32.9298 2.04624 32.9606 2.05892 32.991C2.51814 34.1452 3.24578 35.1904 4.18954 36.0512C5.11261 36.931 6.23318 37.6092 7.47079 38.0374C8.46398 38.398 9.86348 38.775 12.2502 38.877C14.6588 38.9792 15.403 39 21.3929 39C27.3829 39 28.1278 38.9792 30.5364 38.877C32.926 38.7748 34.3238 38.3958 35.3136 38.038C36.5518 37.61 37.6731 36.9314 38.5964 36.0512C39.5399 35.1906 40.2673 34.146 40.7266 32.9922C41.1134 32.0662 41.5177 30.7616 41.6269 28.5364C41.7366 26.2908 41.7591 25.5956 41.7591 20.0126C41.7591 14.4294 41.7366 13.7337 41.6269 11.4881C41.5169 9.24854 41.1067 7.94336 40.721 7.01984C40.2169 5.80644 39.5776 4.88874 38.5949 3.97254C37.6141 3.05998 36.6325 2.46358 35.3299 1.99308C34.3358 1.63074 32.935 1.25062 30.5364 1.14812C30.3277 1.13928 30.1316 1.13104 29.9435 1.12336M1.16823 28.7124C1.1649 28.6546 1.16179 28.5962 1.15887 28.537C1.14939 28.3424 1.14053 28.1594 1.1323 27.9838M29.9435 1.12336H30.5343M29.9435 1.12336L12.843 1.12334M29.9435 1.12336C27.9591 1.04248 26.8627 1.02506 21.3929 1.02506C15.9236 1.02506 14.827 1.04246 12.843 1.12334M30.5343 1.12336C32.7271 1.21688 34.1412 1.53688 35.3417 1.96974L35.3582 1.97562C36.5795 2.40452 37.686 3.07642 38.6005 3.94454L38.6131 3.9566L38.6262 3.96844C39.5574 4.8211 40.278 5.85292 40.7377 6.99192L40.7455 7.01118C41.2112 8.12762 41.5533 9.4433 41.6535 11.489M41.6535 28.536C41.5533 30.5816 41.2112 31.898 40.7463 33.0154L40.7395 33.0324C40.2793 34.1712 39.5587 35.2026 38.6275 36.0552L38.6144 36.0672L38.6018 36.0794C37.6864 36.9486 36.5797 37.6198 35.3593 38.0476L35.3382 38.0552C34.1408 38.4894 32.7295 38.8082 30.5353 38.9018M17.766 28.1762C18.9158 28.6202 20.1482 28.8488 21.3929 28.8488C23.9066 28.8488 26.3174 27.9178 28.0949 26.2608C29.8722 24.6036 30.8708 22.356 30.8708 20.0126C30.8708 17.669 29.8722 15.4214 28.0949 13.7643C26.3174 12.1072 23.9066 11.1762 21.3929 11.1762C20.1482 11.1762 18.9158 11.4048 17.766 11.8488C16.6159 12.2929 15.5712 12.9438 14.6911 13.7643C13.811 14.5848 13.1128 15.5589 12.6365 16.631C12.1602 17.703 11.9151 18.8522 11.9151 20.0126C11.9151 21.173 12.1602 22.322 12.6365 23.394C13.1128 24.4662 13.811 25.4402 14.6911 26.2608C15.5712 27.0812 16.6159 27.7322 17.766 28.1762ZM14.67 13.7446C16.4531 12.0823 18.8714 11.1484 21.3929 11.1484C23.9146 11.1484 26.3329 12.0823 28.116 13.7446C29.8991 15.407 30.9007 17.6616 30.9007 20.0126C30.9007 22.3634 29.8991 24.618 28.116 26.2804C26.3329 27.9428 23.9146 28.8766 21.3929 28.8766C18.8714 28.8766 16.4531 27.9428 14.67 26.2804C12.8869 24.618 11.8852 22.3634 11.8852 20.0126C11.8852 17.6616 12.8869 15.407 14.67 13.7446ZM36.2545 9.08458C36.2545 9.75746 35.9676 10.4028 35.4575 10.8786C34.9472 11.3544 34.2549 11.6217 33.5333 11.6217C32.8114 11.6217 32.1194 11.3544 31.609 10.8786C31.0987 10.4028 30.8118 9.75746 30.8118 9.08458C30.8118 8.4117 31.0987 7.76638 31.609 7.2906C32.1194 6.8148 32.8114 6.5475 33.5333 6.5475C34.2549 6.5475 34.9472 6.8148 35.4575 7.2906C35.9676 7.76638 36.2545 8.4117 36.2545 9.08458Z" stroke="black" stroke-width="2" stroke-linejoin="round"/>
</svg>
