<svg width="79" height="79" viewBox="0 0 79 79" fill="none" xmlns="http://www.w3.org/2000/svg">
<path d="M51.2744 77.6207H37.2944H18.8006C14.3683 77.6207 9.54613 75.7395 6.21367 72.407C2.87542 69.0688 1 64.5411 1 59.8201V18.8006C1 14.0796 2.87542 9.55193 6.21367 6.21367C9.55193 2.87541 14.0796 1 18.8006 1H59.8201C64.5411 1 69.0688 2.87541 72.407 6.21367C75.7453 9.55193 77.6207 14.0796 77.6207 18.8006V59.8201C77.6207 64.5411 75.7453 69.0688 72.407 72.407C69.0688 75.7453 64.5411 77.6207 59.8201 77.6207H51.2744Z" stroke="black" stroke-width="2"/>
<path d="M39.3105 58.9656C35.423 58.9656 31.6229 57.8129 28.3906 55.6531C25.1583 53.4934 22.6391 50.4237 21.1514 46.8322C19.6638 43.2406 19.2746 39.2886 20.033 35.4759C20.7913 31.6632 22.6633 28.161 25.4121 25.4121C28.161 22.6633 31.6632 20.7913 35.4759 20.033C39.2886 19.2746 43.2406 19.6638 46.8322 21.1514C50.4237 22.6391 53.4934 25.1583 55.6531 28.3906C57.8129 31.6229 58.9656 35.423 58.9656 39.3105C58.9612 44.522 56.8889 49.5187 53.2038 53.2038C49.5187 56.8889 44.522 58.9612 39.3105 58.9656ZM39.3105 23.0406C36.0885 23.0406 32.939 23.9962 30.2603 25.7866C27.5816 27.5769 25.4941 30.1216 24.2619 33.0985C23.0297 36.0755 22.7082 39.3511 23.338 42.5109C23.9678 45.6706 25.5206 48.5726 27.8 50.8497C30.0794 53.1267 32.983 54.6766 36.1434 55.3031C39.3038 55.9296 42.5791 55.6047 45.5548 54.3694C48.5305 53.1341 51.0729 51.044 52.8605 48.3634C54.6481 45.6829 55.6005 42.5324 55.5971 39.3105C55.5927 34.9923 53.8753 30.8523 50.8219 27.799C47.7686 24.7456 43.6286 23.0282 39.3105 23.0238V23.0406Z" fill="black"/>
<path d="M59.6949 21.114C58.5788 21.114 57.4878 20.783 56.5598 20.163C55.6317 19.5429 54.9084 18.6615 54.4813 17.6304C54.0542 16.5992 53.9424 15.4646 54.1602 14.3699C54.3779 13.2752 54.9154 12.2697 55.7046 11.4805C56.4938 10.6913 57.4993 10.1538 58.594 9.93607C59.6887 9.71833 60.8233 9.83008 61.8545 10.2572C62.8857 10.6843 63.767 11.4076 64.3871 12.3356C65.0072 13.2637 65.3381 14.3547 65.3381 15.4708C65.3381 16.9675 64.7436 18.4029 63.6853 19.4612C62.627 20.5195 61.1916 21.114 59.6949 21.114ZM59.6949 13.0523C59.2166 13.0523 58.749 13.1942 58.3513 13.4599C57.9536 13.7257 57.6436 14.1034 57.4605 14.5453C57.2775 14.9872 57.2296 15.4735 57.3229 15.9427C57.4162 16.4118 57.6466 16.8427 57.9848 17.181C58.323 17.5192 58.754 17.7495 59.2231 17.8429C59.6923 17.9362 60.1785 17.8883 60.6205 17.7052C61.0624 17.5222 61.4401 17.2122 61.7059 16.8145C61.9716 16.4168 62.1135 15.9492 62.1135 15.4708C62.1135 14.8294 61.8586 14.2142 61.4051 13.7607C60.9515 13.3071 60.3364 13.0523 59.6949 13.0523Z" fill="black"/>
</svg>
