<svg width="43" height="40" viewBox="0 0 43 40" fill="none" xmlns="http://www.w3.org/2000/svg">
<path d="M9.89517 38.6938C9.89517 38.6938 25.2278 17.3964 21.6981 11.8354C20.0051 9.16583 13.7124 10.2973 17.7771 23.4011C20.8277 33.2733 36.7273 27.3278 36.7273 17.3964C36.7264 15.0618 36.1038 12.7635 34.9147 10.705C33.7257 8.64642 32.0068 6.89113 29.9103 5.59454C27.8138 4.29795 25.4044 3.50007 22.8955 3.27156C20.3865 3.04304 17.8554 3.39094 15.5263 4.28444C13.1972 5.17795 11.142 6.58949 9.5426 8.39408C7.94321 10.1987 6.84903 12.3406 6.35694 14.6302C5.86484 16.9199 5.99003 19.2865 6.72142 21.5207C7.4528 23.7548 8.76781 25.7875 10.55 27.4387" stroke="black" stroke-width="2"/>
<path d="M27.7599 38.6964H20.3216H10.4816C8.22737 38.6964 5.77589 37.7843 4.09662 36.1907C2.41351 34.5935 1.47839 32.4388 1.47839 30.2038V9.49262C1.47839 7.25765 2.41351 5.10291 4.09662 3.5057C5.78152 1.90681 8.0774 1 10.4816 1H32.3069C34.7111 1 37.007 1.90681 38.6918 3.5057C40.375 5.10291 41.3101 7.25765 41.3101 9.49262V30.2038C41.3101 32.4388 40.375 34.5935 38.6918 36.1907C37.007 37.7896 34.7111 38.6964 32.3069 38.6964H27.7599Z" stroke="black" stroke-width="2"/>
</svg>
