<svg width="79" height="79" viewBox="0 0 79 79" fill="none" xmlns="http://www.w3.org/2000/svg">
<path d="M17.5767 73.707C17.5767 73.707 47.0595 38.3224 40.2723 29.0831C37.0169 24.6478 24.9167 26.5276 32.7327 48.2989C38.5986 64.7011 69.1716 54.8229 69.1716 38.3224C69.1698 34.4437 67.9727 30.6252 65.6862 27.205C63.3998 23.7848 60.0946 20.8685 56.0634 18.7143C52.0321 16.56 47.3991 15.2344 42.5747 14.8547C37.7503 14.4751 32.8833 15.0531 28.4048 16.5376C23.9262 18.0221 19.9742 20.3673 16.8988 23.3656C13.8234 26.3638 11.7194 29.9225 10.7732 33.7266C9.82693 37.5307 10.0677 41.4629 11.474 45.1748C12.8804 48.8867 15.409 52.2638 18.8359 55.0072" stroke="black" stroke-width="2"/>
<path d="M51.6533 77.6207H37.6733H19.1795C14.7472 77.6207 9.92503 75.7395 6.59258 72.407C3.25432 69.0688 1.37891 64.5411 1.37891 59.8201V18.8006C1.37891 14.0796 3.25432 9.55193 6.59258 6.21367C9.93084 2.87541 14.4585 1 19.1795 1H60.199C64.92 1 69.4477 2.87541 72.7859 6.21367C76.1242 9.55193 77.9996 14.0796 77.9996 18.8006V59.8201C77.9996 64.5411 76.1242 69.0688 72.7859 72.407C69.4477 75.7453 64.92 77.6207 60.199 77.6207H51.6533Z" stroke="black" stroke-width="2"/>
</svg>
