<svg width="28" height="28" viewBox="0 0 28 28" fill="none" xmlns="http://www.w3.org/2000/svg">
<circle cx="14" cy="10.7693" r="4.88462" stroke="#0A3641"/>
<circle cx="14" cy="14" r="13.25" stroke="#0A3641" stroke-width="1.5"/>
<path d="M6.04316 24.8538C5.83389 24.717 5.66908 24.6019 5.5537 24.5189C5.61819 22.256 6.56377 20.4631 8.0523 19.2165C9.60361 17.9173 11.7721 17.1906 14.204 17.1906C16.6339 17.1906 18.6589 17.9158 20.0707 19.2027C21.4319 20.4435 22.2649 22.244 22.3168 24.5383C22.2167 24.6202 22.0728 24.7339 21.8884 24.8692C21.4916 25.1603 20.9092 25.5506 20.1731 25.9412C18.6984 26.7238 16.6258 27.4982 14.204 27.4982C11.7789 27.4982 9.56756 26.7219 7.9504 25.9334C7.14423 25.5404 6.49222 25.1474 6.04316 24.8538Z" stroke="#0A3641"/>
</svg>
