<svg width="23" height="30" viewBox="0 0 23 30" fill="none" xmlns="http://www.w3.org/2000/svg">
<path d="M20.9634 29H1.94719C1.81577 28.9998 1.68584 28.9683 1.56562 28.9076C1.44539 28.847 1.33751 28.7584 1.24879 28.6475C1.16008 28.5366 1.09248 28.4059 1.05027 28.2636C1.00806 28.1213 0.992166 27.9705 1.00359 27.8208L2.69484 8.36411C2.71899 8.09668 2.82866 7.84886 3.00281 7.66823C3.17696 7.48759 3.40332 7.38687 3.63844 7.38538H19.2722C19.5042 7.38457 19.7286 7.48052 19.9032 7.65525C20.0779 7.82999 20.1908 8.07152 20.2209 8.33463L21.9122 27.7914C21.9275 27.9439 21.9144 28.0984 21.8736 28.2446C21.8328 28.3909 21.7654 28.5256 21.6757 28.6398C21.586 28.7541 21.4762 28.8453 21.3534 28.9074C21.2306 28.9694 21.0977 29.001 20.9634 29Z" stroke="#0A3641" stroke-width="2"/>
<path d="M6.43848 10.4336V6.73678C6.43848 5.21529 6.96705 3.75612 7.90793 2.68027C8.84881 1.60441 10.1249 1 11.4555 1C12.7861 1 14.0622 1.60441 15.0031 2.68027C15.944 3.75612 16.4725 5.21529 16.4725 6.73678V10.4512" stroke="#0A3641" stroke-width="2"/>
<path d="M6.43848 11.6128C7.00802 11.6128 7.46973 11.0848 7.46973 10.4336C7.46973 9.78234 7.00802 9.25439 6.43848 9.25439C5.86893 9.25439 5.40723 9.78234 5.40723 10.4336C5.40723 11.0848 5.86893 11.6128 6.43848 11.6128Z" stroke="#0A3641" stroke-width="2"/>
<path d="M16.4727 11.6128C17.0422 11.6128 17.5039 11.0848 17.5039 10.4336C17.5039 9.78234 17.0422 9.25439 16.4727 9.25439C15.9031 9.25439 15.4414 9.78234 15.4414 10.4336C15.4414 11.0848 15.9031 11.6128 16.4727 11.6128Z" stroke="#0A3641" stroke-width="2"/>
</svg>
